<svg xmlns="http://www.w3.org/2000/svg" xmlns:xlink="http://www.w3.org/1999/xlink" width="110" height="110" viewBox="0 0 110 110">
  <defs>
    <clipPath id="clip-path">
      <rect id="Rectangle_55" data-name="Rectangle 55" width="78.167" height="67.704" fill="none" stroke="#fff" stroke-width="1"/>
    </clipPath>
  </defs>
  <g id="Group_51" data-name="Group 51" transform="translate(-905 -3113)">
    <g id="Ellipse_2" data-name="Ellipse 2" transform="translate(905 3113)" fill="none" stroke="#fff" stroke-width="3">
      <circle cx="55" cy="55" r="55" stroke="none"/>
      <circle cx="55" cy="55" r="53.5" fill="none"/>
    </g>
    <g id="Group_7" data-name="Group 7" transform="translate(921.627 3134.148)">
      <g id="Group_6" data-name="Group 6" clip-path="url(#clip-path)">
        <path id="Path_31" data-name="Path 31" d="M58.217,67.7h-15.3a.8.8,0,1,1,0-1.6H57.755L76.439,33.923,57.737,1.6H20.326L1.727,33.853,20.221,66.1h14.87a.8.8,0,1,1,0,1.6H19.756a.8.8,0,0,1-.7-.4L.106,34.251a.8.8,0,0,1,0-.8L19.169.4a.8.8,0,0,1,.695-.4H58.2a.8.8,0,0,1,.694.4L78.06,33.521a.8.8,0,0,1,0,.8L58.91,67.3a.8.8,0,0,1-.693.4" transform="translate(0)" fill="#fff" stroke="#fff" stroke-width="1"/>
        <path id="Path_32" data-name="Path 32" d="M56.136,96.047a.8.8,0,0,1-.8-.8V89.474H34.093a.8.8,0,0,1-.687-.388l-5-8.306a.8.8,0,1,1,1.373-.828l4.772,7.918h21.59a.8.8,0,0,1,.8.8v6.573a.8.8,0,0,1-.8.8" transform="translate(-10.077 -28.344)" fill="#fff" stroke="#fff" stroke-width="1"/>
        <path id="Path_33" data-name="Path 33" d="M81.943,85.8H78.215a.8.8,0,0,1,0-1.6h3.264l7.862-13.655a.8.8,0,1,1,1.39.8L82.638,85.394a.8.8,0,0,1-.695.4" transform="translate(-27.578 -24.985)" fill="#fff" stroke="#fff" stroke-width="1"/>
        <path id="Path_34" data-name="Path 34" d="M100.412,48.042a.8.8,0,0,1-.692-1.205l2.535-4.352-7.86-13.608a.8.8,0,0,1,.282-1.089l5.729-3.435a.8.8,0,1,1,.825,1.376l-5.052,3.03,7.7,13.327a.8.8,0,0,1,0,.8l-2.769,4.754a.8.8,0,0,1-.693.4" transform="translate(-33.588 -8.635)" fill="#fff" stroke="#fff" stroke-width="1"/>
        <path id="Path_35" data-name="Path 35" d="M74.74,77.675H68.457a.8.8,0,1,1,0-1.6h5.816l6.265-10.99a.8.8,0,1,1,1.393.794l-6.5,11.394a.8.8,0,0,1-.7.4" transform="translate(-24.101 -23.04)" fill="#fff" stroke="#fff" stroke-width="1"/>
        <path id="Path_36" data-name="Path 36" d="M83.555,42.469a.8.8,0,0,1-.67-1.242l2.5-3.807L74.148,18.083H67.8a.8.8,0,0,1-.8-.8V10.891a.8.8,0,0,1,1.6,0v5.588H74.61a.8.8,0,0,1,.693.4L87.017,37.043a.8.8,0,0,1-.023.843l-2.768,4.221a.8.8,0,0,1-.671.362" transform="translate(-23.865 -3.594)" fill="#fff" stroke="#fff" stroke-width="1"/>
        <path id="Path_37" data-name="Path 37" d="M35.676,21.278a.8.8,0,0,1-.352-.082l-5.431-2.663a.8.8,0,0,1-.339-1.125L33.6,10.487a.8.8,0,0,1,.693-.4H64.748a.8.8,0,0,1,.688.389L69.589,17.4a.8.8,0,0,1-1.375.825l-3.919-6.533H34.752l-3.379,5.78,4.656,2.283a.8.8,0,0,1-.353,1.522" transform="translate(-10.489 -3.594)" fill="#fff" stroke="#fff" stroke-width="1"/>
        <path id="Path_38" data-name="Path 38" d="M14.662,61.381a.8.8,0,0,1-.384-1.506l5.106-2.784L12.016,44.209a.8.8,0,0,1,0-.8c3.167-5.545,7.96-14.013,8.338-14.877a.8.8,0,0,1,1.573.221c0,.256,0,.317-1.414,2.875-.7,1.264-1.673,3-2.9,5.166-1.682,2.977-3.38,5.959-3.981,7.013L21.182,57a.8.8,0,0,1-.312,1.1l-5.824,3.176a.791.791,0,0,1-.383.1m5.661-32.625h0Zm0,0h0Z" transform="translate(-4.243 -9.959)" fill="#fff" stroke="#fff" stroke-width="1"/>
        <path id="Path_39" data-name="Path 39" d="M42.607,67.941a.8.8,0,0,1-.8-.8V61.765h-6.12a.8.8,0,0,1-.7-.4L23.595,41.379a.8.8,0,0,1,0-.8L35.2,20.417a.8.8,0,0,1,.7-.4h7.773a.8.8,0,1,1,0,1.6h-7.31L25.215,40.984,36.151,60.161h6.456a.8.8,0,0,1,.8.8v6.176a.8.8,0,0,1-.8.8" transform="translate(-8.368 -7.13)" fill="#fff" stroke="#fff" stroke-width="1"/>
        <path id="Path_40" data-name="Path 40" d="M36.5,48.833a.8.8,0,0,1-.694-.4l-2.45-4.221a.8.8,0,0,1,0-.8l8.52-15.053a.8.8,0,0,1,.7-.407H59.182a.8.8,0,0,1,.708.426l1.81,3.407a.8.8,0,0,1-1.416.753L58.7,29.559H43.037L34.975,43.805l2.218,3.823a.8.8,0,0,1-.693,1.2" transform="translate(-11.844 -9.959)" fill="#fff" stroke="#fff" stroke-width="1"/>
        <path id="Path_41" data-name="Path 41" d="M62.14,62.154H45.314a.8.8,0,0,1-.695-.4L41.957,57.12a.8.8,0,0,1,1.391-.8l2.431,4.23H61.687l8.138-13.477-3.681-5.929a.8.8,0,0,1,.3-1.128l5.218-2.82a.8.8,0,0,1,.763,1.411l-4.469,2.415,3.491,5.623a.8.8,0,0,1,.005.838L62.826,61.767a.8.8,0,0,1-.686.388" transform="translate(-14.908 -13.217)" fill="#fff" stroke="#fff" stroke-width="1"/>
        <path id="Path_42" data-name="Path 42" d="M70.864,50.43a.8.8,0,0,1-.717-1.16l1.087-2.177L66.459,38.7h-2.3a.8.8,0,1,1,0-1.6h2.769a.8.8,0,0,1,.7.4l5.218,9.166a.8.8,0,0,1,.021.754l-1.278,2.56a.8.8,0,0,1-.718.444" transform="translate(-22.569 -13.217)" fill="#fff" stroke="#fff" stroke-width="1"/>
        <path id="Path_43" data-name="Path 43" d="M59.617,56.737H48.968a.8.8,0,0,1-.692-.4l-5.325-9.121a.8.8,0,0,1-.012-.785l5.218-9.622a.8.8,0,0,1,.7-.42h2.875a.8.8,0,1,1,0,1.6h-2.4L44.564,46.8l4.865,8.332H59.16l1.471-2.483a.8.8,0,0,1,1.38.818l-1.7,2.876a.8.8,0,0,1-.689.393" transform="translate(-15.262 -12.964)" fill="#fff" stroke="#fff" stroke-width="1"/>
        <path id="Path_44" data-name="Path 44" d="M38.691,38.7a.8.8,0,0,1-.4-.109l-4.642-2.713a.8.8,0,1,1,.809-1.384L39.1,37.206a.8.8,0,0,1-.406,1.494" transform="translate(-11.844 -12.249)" fill="#fff" stroke="#fff" stroke-width="1"/>
        <path id="Path_45" data-name="Path 45" d="M89.271,77.4a.8.8,0,0,1-.363-.088l-5.659-2.88A.8.8,0,1,1,83.975,73l5.66,2.88a.8.8,0,0,1-.364,1.517" transform="translate(-29.5 -25.974)" fill="#fff" stroke="#fff" stroke-width="1"/>
        <path id="Path_46" data-name="Path 46" d="M60.268,72.273a.8.8,0,0,1-.8-.8V66.306a.8.8,0,1,1,1.6,0V71.47a.8.8,0,0,1-.8.8" transform="translate(-21.184 -23.335)" fill="#fff" stroke="#fff" stroke-width="1"/>
      </g>
    </g>
  </g>
</svg>
