<svg xmlns="http://www.w3.org/2000/svg" xmlns:xlink="http://www.w3.org/1999/xlink" width="110" height="110" viewBox="0 0 110 110">
  <defs>
    <clipPath id="clip-path">
      <rect id="Rectangle_54" data-name="Rectangle 54" width="87.308" height="60.98" fill="none"/>
    </clipPath>
  </defs>
  <g id="Group_50" data-name="Group 50" transform="translate(-275 -3113)">
    <g id="Ellipse_2" data-name="Ellipse 2" transform="translate(275 3113)" fill="none" stroke="#fff" stroke-width="3">
      <circle cx="55" cy="55" r="55" stroke="none"/>
      <circle cx="55" cy="55" r="53.5" fill="none"/>
    </g>
    <g id="Group_5" data-name="Group 5" transform="translate(289 3137.51)">
      <g id="Group_4" data-name="Group 4" clip-path="url(#clip-path)">
        <path id="Path_25" data-name="Path 25" d="M14.114,67.705a4.163,4.163,0,1,0,4.163,4.163,4.168,4.168,0,0,0-4.163-4.163m0,6.32a2.156,2.156,0,1,1,2.156-2.156,2.159,2.159,0,0,1-2.156,2.156" transform="translate(-5.957 -40.528)" fill="#fff"/>
        <path id="Path_26" data-name="Path 26" d="M79.151,23.182a8.155,8.155,0,0,0-7.174,12.039l-15.01,4.568A9.181,9.181,0,0,0,52.5,38.052l9.582-15.721a8.121,8.121,0,1,0-1.8-.906l-9.938,16.3c-2.241-.265-4.472-.341-5.807-.361V16.247a8.158,8.158,0,1,0-2.007,0V37.374c-1.3.026-3.255.1-5.244.327L27.041,21.417a8.322,8.322,0,1,0-1.8.91l9.865,15.684c-2.026.359-3.833.916-4.7,1.779L15.333,35.22a8.241,8.241,0,1,0-1.254,1.717L29.86,41.721V57.364c0,3.441,11.519,3.616,13.828,3.616s13.827-.175,13.827-3.616V41.72l15.716-4.783a8.153,8.153,0,1,0,5.92-13.755m-20.46-8.516a6.151,6.151,0,1,1,6.151,6.151,6.158,6.158,0,0,1-6.151-6.151m-42.375,0a6.151,6.151,0,1,1,6.151,6.151,6.158,6.158,0,0,1-6.151-6.151M8.159,37.491a6.175,6.175,0,1,1,4.924-2.48.993.993,0,0,0-.251.319,6.138,6.138,0,0,1-4.672,2.161M32.289,40.86c.069-.033.149-.067.232-.1.028-.012.05-.022.079-.034.116-.045.244-.092.384-.138.038-.013.083-.025.123-.038.106-.034.215-.068.334-.1.061-.018.132-.036.2-.053.108-.029.216-.059.333-.088.077-.019.161-.038.242-.057.116-.027.233-.054.358-.081l.283-.058c.127-.026.255-.051.389-.076l.319-.057c.138-.024.278-.048.423-.071l.353-.054q.226-.034.462-.065l.384-.05c.163-.02.33-.04.5-.059l.414-.045c.177-.018.36-.035.545-.051l.437-.038c.2-.016.4-.029.6-.043.15-.01.3-.021.45-.03.217-.013.442-.023.667-.034.151-.007.3-.015.452-.021.254-.01.518-.016.782-.023.136,0,.266-.009.4-.011q.61-.012,1.253-.012t1.253.012c.138,0,.268.008.4.011.264.007.528.014.782.023.154.006.3.014.451.021.226.01.452.021.669.034.153.009.3.02.448.03.2.014.406.028.6.043l.435.038c.186.016.37.033.548.051l.411.045c.171.019.34.039.5.059l.381.049q.238.033.465.066c.119.018.236.035.35.054.147.023.288.047.427.071.106.018.213.037.315.056.136.025.265.051.393.077l.279.057c.126.027.244.055.362.082.079.019.163.037.239.056.118.03.227.059.336.089l.194.052c.12.035.229.069.336.1l.121.038c.14.047.269.093.385.138l.078.033c.083.034.164.068.232.1.036.017.063.033.1.05s.088.046.124.068c-1.076.641-5.033,1.607-11.617,1.607s-10.541-.967-11.617-1.607c.037-.022.08-.045.124-.068s.06-.033.095-.05m23.219,2.2v5.929c-.653.627-4.7,1.757-11.82,1.757s-11.167-1.13-11.821-1.757V43.064c3.405,1.432,10.117,1.528,11.821,1.528s8.415-.1,11.82-1.528M37.38,8.158a6.151,6.151,0,1,1,6.151,6.151A6.158,6.158,0,0,1,37.38,8.158m6.308,50.815c-7.111,0-11.159-1.128-11.821-1.755V51.287c3.405,1.432,10.117,1.529,11.821,1.529s8.415-.1,11.82-1.529v5.931c-.662.627-4.71,1.755-11.82,1.755M79.151,37.491a6.136,6.136,0,0,1-4.674-2.163.99.99,0,0,0-.247-.314,6.143,6.143,0,1,1,4.921,2.477" transform="translate(-0.001)" fill="#fff"/>
        <path id="Path_27" data-name="Path 27" d="M190.979,67.705a4.163,4.163,0,1,0,4.163,4.163,4.168,4.168,0,0,0-4.163-4.163m0,6.32a2.156,2.156,0,1,1,2.156-2.156,2.159,2.159,0,0,1-2.156,2.156" transform="translate(-111.828 -40.528)" fill="#fff"/>
        <path id="Path_28" data-name="Path 28" d="M49.762,26.165a4.163,4.163,0,1,0,4.163,4.163,4.168,4.168,0,0,0-4.163-4.163m0,6.32a2.156,2.156,0,1,1,2.156-2.156,2.159,2.159,0,0,1-2.156,2.156" transform="translate(-27.296 -15.662)" fill="#fff"/>
        <path id="Path_29" data-name="Path 29" d="M155.331,34.492a4.163,4.163,0,1,0-4.163-4.163,4.168,4.168,0,0,0,4.163,4.163m0-6.32a2.156,2.156,0,1,1-2.156,2.156,2.159,2.159,0,0,1,2.156-2.156" transform="translate(-90.49 -15.662)" fill="#fff"/>
        <path id="Path_30" data-name="Path 30" d="M106.4,14.114a4.163,4.163,0,1,0-4.163,4.163,4.168,4.168,0,0,0,4.163-4.163m-6.32,0a2.156,2.156,0,1,1,2.156,2.156,2.159,2.159,0,0,1-2.156-2.156" transform="translate(-58.707 -5.957)" fill="#fff"/>
      </g>
    </g>
  </g>
</svg>
