<svg xmlns="http://www.w3.org/2000/svg" width="110" height="110" viewBox="0 0 110 110">
  <g id="Group_52" data-name="Group 52" transform="translate(-1538 -3113)">
    <g id="Group_32" data-name="Group 32" transform="translate(1537.535 3113)">
      <g id="Group_30" data-name="Group 30">
        <g id="Ellipse_2" data-name="Ellipse 2" transform="translate(0.465)" fill="none" stroke="#fff" stroke-width="3">
          <circle cx="55" cy="55" r="55" stroke="none"/>
          <circle cx="55" cy="55" r="53.5" fill="none"/>
        </g>
      </g>
      <g id="Group_9" data-name="Group 9" transform="translate(25.942 21.148)">
        <g id="Group_10" data-name="Group 10">
          <path id="Path_47" data-name="Path 47" d="M54.943,27.095q0,.641-.743.641H50.723q-.753,0-.753-.641t.753-.63h.945V22.306l-.895.538a.586.586,0,0,1-.305.092.543.543,0,0,1-.432-.214.728.728,0,0,1-.178-.478.588.588,0,0,1,.315-.539l1.607-.966a1.369,1.369,0,0,1,.712-.213.725.725,0,0,1,.763.773v5.166H54.2q.743,0,.743.63" transform="translate(-30.799 -13.272)" fill="#fff" stroke="rgba(0,0,0,0)" stroke-width="3"/>
          <path id="Path_48" data-name="Path 48" d="M69.192,26.806A4.612,4.612,0,0,1,68.5,24.07a4.591,4.591,0,0,1,.687-2.725,2.562,2.562,0,0,1,3.976,0,4.594,4.594,0,0,1,.687,2.725,4.615,4.615,0,0,1-.687,2.736,2.562,2.562,0,0,1-3.976,0m2.847-.854a4.845,4.845,0,0,0,.269-1.882,4.8,4.8,0,0,0-.269-1.881.926.926,0,0,0-1.719.005,4.8,4.8,0,0,0-.269,1.876,4.839,4.839,0,0,0,.269,1.882.921.921,0,0,0,1.719,0" transform="translate(-41.94 -13.196)" fill="#fff" stroke="rgba(0,0,0,0)" stroke-width="3"/>
          <path id="Path_49" data-name="Path 49" d="M94.356,27.095q0,.641-.743.641H90.136q-.753,0-.753-.641t.753-.63h.945V22.306l-.895.538a.586.586,0,0,1-.305.092.543.543,0,0,1-.432-.214.728.728,0,0,1-.178-.478.588.588,0,0,1,.315-.539l1.607-.966a1.369,1.369,0,0,1,.712-.213.725.725,0,0,1,.763.773v5.166h.945q.743,0,.743.63" transform="translate(-54.349 -13.272)" fill="#fff" stroke="rgba(0,0,0,0)" stroke-width="3"/>
          <path id="Path_50" data-name="Path 50" d="M54.943,57.413q0,.641-.743.641H50.723q-.753,0-.753-.641t.753-.63h.945V52.624l-.895.538a.586.586,0,0,1-.305.092.543.543,0,0,1-.432-.214.728.728,0,0,1-.178-.478.588.588,0,0,1,.315-.539l1.607-.966a1.369,1.369,0,0,1,.712-.213.725.725,0,0,1,.763.773v5.166H54.2q.743,0,.743.63" transform="translate(-30.799 -31.388)" fill="#fff" stroke="rgba(0,0,0,0)" stroke-width="3"/>
          <path id="Path_51" data-name="Path 51" d="M69.192,57.124a4.612,4.612,0,0,1-.687-2.736,4.591,4.591,0,0,1,.687-2.725,2.562,2.562,0,0,1,3.976,0,4.594,4.594,0,0,1,.687,2.725,4.615,4.615,0,0,1-.687,2.736,2.562,2.562,0,0,1-3.976,0m2.847-.854a6.707,6.707,0,0,0,0-3.763.926.926,0,0,0-1.719.005,6.7,6.7,0,0,0,0,3.757.921.921,0,0,0,1.719,0" transform="translate(-41.94 -31.312)" fill="#fff" stroke="rgba(0,0,0,0)" stroke-width="3"/>
          <path id="Path_52" data-name="Path 52" d="M88.9,57.124a4.612,4.612,0,0,1-.687-2.736,4.591,4.591,0,0,1,.687-2.725,2.562,2.562,0,0,1,3.976,0,4.594,4.594,0,0,1,.687,2.725,4.615,4.615,0,0,1-.687,2.736,2.562,2.562,0,0,1-3.976,0m2.847-.854a6.707,6.707,0,0,0,0-3.763.926.926,0,0,0-1.719.005,6.7,6.7,0,0,0,0,3.757.921.921,0,0,0,1.719,0" transform="translate(-53.715 -31.312)" fill="#fff" stroke="rgba(0,0,0,0)" stroke-width="3"/>
          <path id="Path_53" data-name="Path 53" d="M114.063,57.413q0,.641-.743.641h-3.477q-.753,0-.753-.641t.753-.63h.945V52.624l-.895.538a.586.586,0,0,1-.305.092.543.543,0,0,1-.432-.214.727.727,0,0,1-.178-.478.588.588,0,0,1,.315-.539l1.607-.966a1.369,1.369,0,0,1,.712-.213.725.725,0,0,1,.763.773v5.166h.945q.743,0,.743.63" transform="translate(-66.125 -31.388)" fill="#fff" stroke="rgba(0,0,0,0)" stroke-width="3"/>
          <path id="Path_54" data-name="Path 54" d="M133.769,57.413q0,.641-.743.641h-3.477q-.753,0-.753-.641t.753-.63h.945V52.624l-.895.538a.586.586,0,0,1-.305.092.543.543,0,0,1-.432-.214.727.727,0,0,1-.178-.478.588.588,0,0,1,.315-.539l1.607-.966a1.369,1.369,0,0,1,.712-.213.725.725,0,0,1,.763.773v5.166h.945q.743,0,.743.63" transform="translate(-77.9 -31.388)" fill="#fff" stroke="rgba(0,0,0,0)" stroke-width="3"/>
          <path id="Path_55" data-name="Path 55" d="M89.367,85.747a5.771,5.771,0,0,1,0-5.46,2.562,2.562,0,0,1,3.976,0,5.771,5.771,0,0,1,0,5.46,2.562,2.562,0,0,1-3.976,0m2.847-.854a6.708,6.708,0,0,0,0-3.763.926.926,0,0,0-1.719.005,6.7,6.7,0,0,0,0,3.757.921.921,0,0,0,1.719,0" transform="translate(-53.996 -48.415)" fill="#fff" stroke="rgba(0,0,0,0)" stroke-width="3"/>
          <path id="Path_56" data-name="Path 56" d="M109.074,85.747a5.771,5.771,0,0,1,0-5.46,2.562,2.562,0,0,1,3.976,0,5.771,5.771,0,0,1,0,5.46,2.562,2.562,0,0,1-3.976,0m2.847-.854a6.708,6.708,0,0,0,0-3.763.926.926,0,0,0-1.719.005,6.7,6.7,0,0,0,0,3.757.921.921,0,0,0,1.719,0" transform="translate(-65.771 -48.415)" fill="#fff" stroke="rgba(0,0,0,0)" stroke-width="3"/>
          <path id="Path_57" data-name="Path 57" d="M134.239,86.036q0,.642-.743.641h-3.477q-.753,0-.753-.641t.753-.63h.945V81.247l-.9.539a.586.586,0,0,1-.3.091.54.54,0,0,1-.432-.214.727.727,0,0,1-.179-.478.588.588,0,0,1,.316-.539l1.607-.966a1.374,1.374,0,0,1,.712-.213.725.725,0,0,1,.763.773v5.166h.945q.743,0,.743.63" transform="translate(-78.18 -48.491)" fill="#fff" stroke="rgba(0,0,0,0)" stroke-width="3"/>
          <path id="Path_58" data-name="Path 58" d="M89.367,116.066a5.771,5.771,0,0,1,0-5.46,2.562,2.562,0,0,1,3.976,0,5.771,5.771,0,0,1,0,5.46,2.562,2.562,0,0,1-3.976,0m2.847-.854a6.708,6.708,0,0,0,0-3.763.926.926,0,0,0-1.719.005,6.7,6.7,0,0,0,0,3.757.921.921,0,0,0,1.719,0" transform="translate(-53.996 -66.532)" fill="#fff" stroke="rgba(0,0,0,0)" stroke-width="3"/>
          <path id="Path_59" data-name="Path 59" d="M114.532,116.355q0,.641-.743.641h-3.477q-.753,0-.753-.641t.753-.63h.945v-4.159l-.895.538a.586.586,0,0,1-.305.092.542.542,0,0,1-.432-.214.727.727,0,0,1-.178-.478.588.588,0,0,1,.315-.539L111.37,110a1.369,1.369,0,0,1,.712-.213.725.725,0,0,1,.763.773v5.166h.945q.743,0,.743.63" transform="translate(-66.405 -66.607)" fill="#fff" stroke="rgba(0,0,0,0)" stroke-width="3"/>
          <path id="Path_60" data-name="Path 60" d="M128.78,116.066a5.771,5.771,0,0,1,0-5.46,2.562,2.562,0,0,1,3.976,0,5.771,5.771,0,0,1,0,5.46,2.562,2.562,0,0,1-3.976,0m2.847-.854a6.717,6.717,0,0,0,0-3.763.926.926,0,0,0-1.719.005,6.7,6.7,0,0,0,0,3.757.922.922,0,0,0,1.719,0" transform="translate(-77.546 -66.532)" fill="#fff" stroke="rgba(0,0,0,0)" stroke-width="3"/>
          <path id="Path_61" data-name="Path 61" d="M94.825,146.673q0,.641-.743.641H90.605q-.753,0-.753-.641t.753-.63h.945v-4.159l-.895.538a.586.586,0,0,1-.305.092.543.543,0,0,1-.432-.214.728.728,0,0,1-.178-.478.588.588,0,0,1,.315-.539l1.607-.966a1.369,1.369,0,0,1,.712-.213.725.725,0,0,1,.763.773v5.166h.945q.743,0,.743.63" transform="translate(-54.63 -84.723)" fill="#fff" stroke="rgba(0,0,0,0)" stroke-width="3"/>
          <path id="Path_62" data-name="Path 62" d="M63.617,55.43V20.144L33.059,2.5,2.5,20.144V55.43L33.059,73.072Z" transform="translate(-2.5 -2.501)" fill="none" stroke="#fff" stroke-linecap="round" stroke-linejoin="round" stroke-width="3"/>
          <path id="Path_63" data-name="Path 63" d="M17.689,56.292,41.977,69.929v30.4" transform="translate(-11.576 -34.643)" fill="none" stroke="#fff" stroke-linecap="round" stroke-linejoin="round" stroke-width="3"/>
        </g>
      </g>
    </g>
  </g>
</svg>
